<svg width="80" height="80" viewBox="0 0 80 80" xmlns="http://www.w3.org/2000/svg">
  <style>
    .pixel { shape-rendering: crispEdges; }
  </style>
  <!-- Chart background -->
  <rect class="pixel" x="10" y="10" width="60" height="60" fill="#ECEFF1"/>
  
  <!-- Chart grid -->
  <rect class="pixel" x="10" y="25" width="60" height="2" fill="#CFD8DC"/>
  <rect class="pixel" x="10" y="40" width="60" height="2" fill="#CFD8DC"/>
  <rect class="pixel" x="10" y="55" width="60" height="2" fill="#CFD8DC"/>
  <rect class="pixel" x="25" y="10" width="2" height="60" fill="#CFD8DC"/>
  <rect class="pixel" x="40" y="10" width="2" height="60" fill="#CFD8DC"/>
  <rect class="pixel" x="55" y="10" width="2" height="60" fill="#CFD8DC"/>
  
  <!-- Chart line (uptrend) -->
  <rect class="pixel" x="15" y="55" width="5" height="5" fill="#4CAF50"/>
  <rect class="pixel" x="25" y="50" width="5" height="5" fill="#4CAF50"/>
  <rect class="pixel" x="35" y="35" width="5" height="5" fill="#4CAF50"/>
  <rect class="pixel" x="45" y="30" width="5" height="5" fill="#4CAF50"/>
  <rect class="pixel" x="55" y="15" width="5" height="5" fill="#4CAF50"/>
  
  <!-- Chart connection lines -->
  <rect class="pixel" x="20" y="52" width="5" height="2" fill="#4CAF50"/>
  <rect class="pixel" x="30" y="42" width="5" height="2" fill="#4CAF50"/>
  <rect class="pixel" x="30" y="40" width="2" height="2" fill="#4CAF50"/>
  <rect class="pixel" x="40" y="32" width="5" height="2" fill="#4CAF50"/>
  <rect class="pixel" x="50" y="20" width="5" height="2" fill="#4CAF50"/>
  <rect class="pixel" x="50" y="22" width="2" height="8" fill="#4CAF50"/>
</svg> 