<svg width="120" height="120" viewBox="0 0 120 120" xmlns="http://www.w3.org/2000/svg">
  <style>
    .pixel { shape-rendering: crispEdges; }
  </style>
  
  <!-- Background -->
  <rect class="pixel" x="0" y="0" width="120" height="120" fill="#2C3E50" fill-opacity="0.3"/>
  
  <!-- Contract document -->
  <rect class="pixel" x="30" y="20" width="60" height="80" fill="#ECEFF1"/>
  <rect class="pixel" x="40" y="30" width="40" height="5" fill="#90A4AE"/>
  <rect class="pixel" x="40" y="40" width="40" height="5" fill="#90A4AE"/>
  <rect class="pixel" x="40" y="50" width="25" height="5" fill="#90A4AE"/>
  <rect class="pixel" x="40" y="65" width="40" height="5" fill="#90A4AE"/>
  <rect class="pixel" x="40" y="75" width="40" height="5" fill="#90A4AE"/>
  <rect class="pixel" x="40" y="85" width="25" height="5" fill="#90A4AE"/>
  
  <!-- Contract border/seal -->
  <rect class="pixel" x="30" y="20" width="60" height="3" fill="#3F51B5"/>
  <rect class="pixel" x="30" y="97" width="60" height="3" fill="#3F51B5"/>
  <rect class="pixel" x="30" y="20" width="3" height="80" fill="#3F51B5"/>
  <rect class="pixel" x="87" y="20" width="3" height="80" fill="#3F51B5"/>
  
  <!-- Floating currency symbols -->
  <!-- Bitcoin -->
  <rect class="pixel" x="15" y="30" width="10" height="15" fill="#F7931A"/>
  <rect class="pixel" x="18" y="33" width="4" height="9" fill="#FFFFFF"/>
  <rect class="pixel" x="17" y="35" width="6" height="2" fill="#F7931A"/>
  <rect class="pixel" x="17" y="38" width="6" height="2" fill="#F7931A"/>
  
  <!-- Ethereum -->
  <rect class="pixel" x="95" y="35" width="12" height="20" fill="#627EEA"/>
  <rect class="pixel" x="99" y="40" width="4" height="5" fill="#FFFFFF"/>
  <rect class="pixel" x="99" y="48" width="4" height="3" fill="#FFFFFF"/>
  
  <!-- Dollar -->
  <rect class="pixel" x="20" y="70" width="10" height="15" fill="#4CAF50"/>
  <rect class="pixel" x="23" y="73" width="4" height="9" fill="#FFFFFF"/>
  <rect class="pixel" x="23" y="73" width="4" height="2" fill="#4CAF50"/>
  <rect class="pixel" x="23" y="80" width="4" height="2" fill="#4CAF50"/>
  
  <!-- Euro -->
  <rect class="pixel" x="90" y="75" width="15" height="15" fill="#2196F3"/>
  <rect class="pixel" x="94" y="78" width="7" height="2" fill="#FFFFFF"/>
  <rect class="pixel" x="93" y="82" width="8" height="2" fill="#FFFFFF"/>
  <rect class="pixel" x="94" y="86" width="7" height="2" fill="#FFFFFF"/>
</svg> 