<svg width="120" height="120" viewBox="0 0 120 120" xmlns="http://www.w3.org/2000/svg">
  <style>
    .pixel { shape-rendering: crispEdges; }
  </style>
  
  <!-- Background -->
  <rect class="pixel" x="0" y="0" width="120" height="120" fill="#E1F5FE" fill-opacity="0.3"/>
  
  <!-- Vault structure -->
  <rect class="pixel" x="65" y="30" width="40" height="60" fill="#455A64"/>
  <rect class="pixel" x="70" y="35" width="30" height="50" fill="#263238"/>
  
  <!-- Vault door -->
  <rect class="pixel" x="75" y="40" width="20" height="40" fill="#37474F"/>
  <rect class="pixel" x="82" y="55" width="6" height="6" fill="#FFC107"/>
  <rect class="pixel" x="84" y="57" width="2" height="2" fill="#455A64"/>
  
  <!-- Vault glow -->
  <rect class="pixel" x="70" y="35" width="3" height="50" fill="#4FC3F7" fill-opacity="0.5"/>
  <rect class="pixel" x="97" y="35" width="3" height="50" fill="#4FC3F7" fill-opacity="0.5"/>
  <rect class="pixel" x="70" y="35" width="30" height="3" fill="#4FC3F7" fill-opacity="0.5"/>
  <rect class="pixel" x="70" y="82" width="30" height="3" fill="#4FC3F7" fill-opacity="0.5"/>
  
  <!-- Contract document -->
  <rect class="pixel" x="15" y="30" width="35" height="50" fill="#ECEFF1"/>
  <rect class="pixel" x="20" y="35" width="25" height="3" fill="#90A4AE"/>
  <rect class="pixel" x="20" y="42" width="25" height="3" fill="#90A4AE"/>
  <rect class="pixel" x="20" y="49" width="15" height="3" fill="#90A4AE"/>
  <rect class="pixel" x="20" y="56" width="25" height="3" fill="#90A4AE"/>
  <rect class="pixel" x="20" y="63" width="15" height="3" fill="#90A4AE"/>
  <rect class="pixel" x="20" y="70" width="25" height="3" fill="#90A4AE"/>
  
  <!-- Connection between contract and vault -->
  <rect class="pixel" x="50" y="50" width="15" height="3" fill="#673AB7"/>
  <rect class="pixel" x="50" y="53" width="3" height="7" fill="#673AB7"/>
  <rect class="pixel" x="53" y="57" width="12" height="3" fill="#673AB7"/>
  <rect class="pixel" x="62" y="50" width="3" height="10" fill="#673AB7"/>
  
  <!-- Coins/Assets inside vault (partial view) -->
  <rect class="pixel" x="75" y="65" width="5" height="5" fill="#FFD700"/>
  <rect class="pixel" x="85" y="70" width="5" height="5" fill="#FFD700"/>
  <rect class="pixel" x="80" y="75" width="5" height="5" fill="#FFD700"/>
  
  <!-- Locks -->
  <rect class="pixel" x="15" y="75" width="7" height="5" fill="#3F51B5"/>
  <rect class="pixel" x="17" y="80" width="3" height="5" fill="#3F51B5"/>
  <rect class="pixel" x="43" y="75" width="7" height="5" fill="#3F51B5"/>
  <rect class="pixel" x="45" y="80" width="3" height="5" fill="#3F51B5"/>
</svg> 