<svg width="120" height="120" viewBox="0 0 120 120" xmlns="http://www.w3.org/2000/svg">
  <style>
    .pixel { shape-rendering: crispEdges; }
  </style>
  
  <!-- Background -->
  <rect class="pixel" x="0" y="0" width="120" height="120" fill="#E8F5E9" fill-opacity="0.3"/>
  
  <!-- Document -->
  <rect class="pixel" x="25" y="20" width="70" height="85" fill="#FFFFFF"/>
  <rect class="pixel" x="25" y="20" width="70" height="5" fill="#CFD8DC"/>
  
  <!-- Document fold -->
  <rect class="pixel" x="25" y="20" width="15" height="15" fill="#ECEFF1"/>
  <rect class="pixel" x="40" y="20" width="5" height="15" fill="#B0BEC5"/>
  <rect class="pixel" x="25" y="35" width="15" height="5" fill="#B0BEC5"/>
  
  <!-- Document content lines -->
  <rect class="pixel" x="35" y="45" width="50" height="3" fill="#EEEEEE"/>
  <rect class="pixel" x="35" y="55" width="50" height="3" fill="#EEEEEE"/>
  <rect class="pixel" x="35" y="65" width="35" height="3" fill="#EEEEEE"/>
  
  <!-- Verification seal -->
  <rect class="pixel" x="70" y="75" width="20" height="20" fill="#4CAF50"/>
  <rect class="pixel" x="72" y="85" width="5" height="3" fill="#FFFFFF"/>
  <rect class="pixel" x="77" y="88" width="3" height="3" fill="#FFFFFF"/>
  <rect class="pixel" x="80" y="85" width="3" height="3" fill="#FFFFFF"/>
  <rect class="pixel" x="83" y="82" width="3" height="3" fill="#FFFFFF"/>
  <rect class="pixel" x="75" y="82" width="5" height="3" fill="#FFFFFF"/>
  
  <!-- Document border -->
  <rect class="pixel" x="25" y="20" width="70" height="2" fill="#90A4AE"/>
  <rect class="pixel" x="25" y="20" width="2" height="85" fill="#90A4AE"/>
  <rect class="pixel" x="93" y="20" width="2" height="85" fill="#90A4AE"/>
  <rect class="pixel" x="25" y="103" width="70" height="2" fill="#90A4AE"/>
  
  <!-- Property icon -->
  <rect class="pixel" x="35" y="75" width="15" height="10" fill="#FFC107"/>
  <rect class="pixel" x="32" y="85" width="21" height="10" fill="#FFD54F"/>
  <rect class="pixel" x="38" y="90" width="5" height="5" fill="#795548"/>
</svg> 